<?xml version="1.0" encoding="UTF-8" standalone="no"?>
<!DOCTYPE svg PUBLIC "-//W3C//DTD SVG 1.1//EN" "http://www.w3.org/Graphics/SVG/1.1/DTD/svg11.dtd">
<svg width="100%" height="100%" viewBox="0 0 220 220" version="1.1" xmlns="http://www.w3.org/2000/svg" xmlns:xlink="http://www.w3.org/1999/xlink" xml:space="preserve" xmlns:serif="http://www.serif.com/" style="fill-rule:evenodd;clip-rule:evenodd;">
    <g id="Artboard1" transform="matrix(1,0,0,1,-143.5,-28.5)">
        <rect x="143.5" y="28.5" width="220" height="220" style="fill:none;"/>
        <g transform="matrix(1,0,0,1,0.5,0.5)">
            <path d="M253.15,220.85C254.077,220.85 254.857,220.48 255.49,219.74C285.697,184.287 317.59,146.59 351.17,106.65C352.683,104.85 352.657,102.947 351.09,100.94C328.75,72.313 317.173,57.433 316.36,56.3C316.081,55.911 315.68,55.626 315.22,55.49C314.54,55.283 313.55,55.18 312.25,55.18C288.243,55.173 268.54,55.173 253.14,55.18C237.733,55.18 218.03,55.183 194.03,55.19C192.73,55.19 191.74,55.293 191.06,55.5C190.6,55.636 190.199,55.921 189.92,56.31C189.107,57.443 177.53,72.323 155.19,100.95C153.623,102.963 153.597,104.867 155.11,106.66C188.697,146.6 220.597,184.293 250.81,219.74C251.443,220.48 252.223,220.85 253.15,220.85" style="fill:none;fill-rule:nonzero;stroke:rgb(37,38,34);stroke-width:2px;"/>
            <path d="M208.45,76.09C208.516,76.181 208.621,76.235 208.734,76.235C208.842,76.235 208.944,76.185 209.01,76.1L221.3,60.42C221.35,60.358 221.378,60.28 221.378,60.2C221.378,60.008 221.22,59.85 221.028,59.85L197.577,59.85C197.385,59.85 197.227,60.008 197.227,60.2C197.227,60.271 197.249,60.341 197.29,60.4L208.45,76.09" style="fill:none;fill-rule:nonzero;stroke:rgb(37,38,34);stroke-width:2px;"/>
            <path d="M297.26,75.71C297.374,75.855 297.548,75.94 297.733,75.94C297.926,75.94 298.107,75.847 298.22,75.69L308.76,60.81C308.833,60.708 308.873,60.586 308.873,60.46C308.873,60.131 308.602,59.86 308.273,59.86L285.98,59.86C285.652,59.861 285.382,60.132 285.382,60.46C285.382,60.594 285.427,60.724 285.51,60.83L297.26,75.71" style="fill:none;fill-rule:nonzero;stroke:rgb(37,38,34);stroke-width:2px;"/>
            <path d="M272.88,60.51C272.948,60.453 272.987,60.369 272.987,60.28C272.987,60.115 272.852,59.98 272.687,59.98L233.733,59.98C233.568,59.98 233.433,60.115 233.433,60.28C233.433,60.369 233.472,60.453 233.54,60.51L253.01,77.6C253.123,77.701 253.297,77.701 253.41,77.6L272.88,60.51" style="fill:none;fill-rule:nonzero;stroke:rgb(37,38,34);stroke-width:2px;"/>
            <path d="M253.06,168.91C253.34,168.91 253.657,168.527 254.01,167.76C273.223,126.773 286.81,97.923 294.77,81.21C294.868,81.016 294.845,80.781 294.71,80.61L279.87,61.82C279.863,61.811 279.856,61.802 279.849,61.794C279.579,61.476 279.092,61.439 278.77,61.712C278.763,61.718 278.757,61.724 278.75,61.73C270.963,68.763 262.977,75.617 254.79,82.29C254.377,82.63 253.83,82.8 253.15,82.8C252.47,82.8 251.923,82.63 251.51,82.29C243.337,75.597 235.363,68.727 227.59,61.68C227.584,61.675 227.578,61.669 227.572,61.664C227.251,61.39 226.764,61.425 226.493,61.742C226.485,61.751 226.477,61.76 226.47,61.77L211.59,80.53C211.455,80.701 211.432,80.936 211.53,81.13C219.457,97.857 232.987,126.733 252.12,167.76C252.473,168.527 252.787,168.91 253.06,168.91" style="fill:none;fill-rule:nonzero;stroke:rgb(37,38,34);stroke-width:2px;"/>
            <path d="M164.56,96.91C164.507,96.973 164.479,97.052 164.479,97.134C164.479,97.326 164.637,97.484 164.829,97.484C164.881,97.484 164.933,97.473 164.98,97.45L204.5,79.67C204.624,79.613 204.704,79.488 204.704,79.352C204.704,79.28 204.682,79.209 204.64,79.15L192.45,62.03C192.384,61.939 192.279,61.885 192.166,61.885C192.058,61.885 191.956,61.935 191.89,62.02L164.56,96.91" style="fill:none;fill-rule:nonzero;stroke:rgb(37,38,34);stroke-width:2px;"/>
            <path d="M341.41,97.43C341.456,97.45 341.505,97.461 341.556,97.461C341.753,97.461 341.916,97.298 341.916,97.101C341.916,97.021 341.889,96.943 341.84,96.88L314.42,62.15C314.352,62.061 314.246,62.008 314.134,62.008C314.017,62.008 313.907,62.065 313.84,62.16L301.8,79.16C301.756,79.221 301.733,79.294 301.733,79.37C301.733,79.513 301.818,79.643 301.95,79.7L341.41,97.43" style="fill:none;fill-rule:nonzero;stroke:rgb(37,38,34);stroke-width:2px;"/>
            <path d="M192.86,101.59C192.967,101.588 193.065,101.531 193.12,101.44L202.31,86.58C202.342,86.53 202.36,86.471 202.36,86.412C202.36,86.241 202.22,86.102 202.05,86.102C202.005,86.102 201.961,86.111 201.92,86.13L168.85,101C168.742,101.051 168.673,101.161 168.673,101.28C168.673,101.449 168.811,101.588 168.98,101.59L192.86,101.59" style="fill:none;fill-rule:nonzero;stroke:rgb(37,38,34);stroke-width:2px;"/>
            <path d="M312.96,101.38C313.016,101.477 313.118,101.537 313.23,101.54L337.26,101.54C337.434,101.537 337.575,101.394 337.575,101.22C337.575,101.096 337.503,100.982 337.39,100.93L304.95,86.35C304.909,86.331 304.864,86.322 304.818,86.322C304.642,86.322 304.498,86.466 304.498,86.642C304.498,86.697 304.512,86.752 304.54,86.8L312.96,101.38" style="fill:none;fill-rule:nonzero;stroke:rgb(37,38,34);stroke-width:2px;"/>
            <path d="M240.3,199.72C240.319,199.727 240.34,199.731 240.361,199.731C240.454,199.731 240.531,199.654 240.531,199.561C240.531,199.533 240.524,199.505 240.51,199.48L192.89,107.31C192.628,106.798 192.099,106.473 191.52,106.47L162.35,106.46C162.3,106.46 162.25,106.469 162.203,106.486C161.981,106.567 161.863,106.811 161.941,107.028C161.959,107.076 161.986,107.121 162.02,107.16C188.16,137.973 213.937,168.55 239.35,198.89C239.737,199.343 240.053,199.62 240.3,199.72" style="fill:none;fill-rule:nonzero;stroke:rgb(37,38,34);stroke-width:2px;"/>
            <path d="M212.68,106.88C212.722,106.826 212.745,106.759 212.745,106.69C212.745,106.52 212.605,106.38 212.435,106.38L198.407,106.38C198.237,106.38 198.097,106.52 198.097,106.69C198.097,106.739 198.108,106.787 198.13,106.83L203.7,117.64C203.753,117.743 203.86,117.809 203.976,117.809C204.071,117.809 204.161,117.765 204.22,117.69L212.68,106.88" style="fill:none;fill-rule:nonzero;stroke:rgb(37,38,34);stroke-width:2px;"/>
            <path d="M293.8,106.39L293.792,106.39C293.628,106.39 293.492,106.525 293.492,106.69C293.492,106.759 293.516,106.826 293.56,106.88L302.07,117.65C302.127,117.723 302.214,117.766 302.307,117.766C302.416,117.766 302.517,117.706 302.57,117.61L308.14,106.83C308.163,106.787 308.175,106.739 308.175,106.69C308.175,106.527 308.043,106.393 307.88,106.39L293.8,106.39" style="fill:none;fill-rule:nonzero;stroke:rgb(37,38,34);stroke-width:2px;"/>
            <path d="M265.7,200.02C265.947,199.92 266.263,199.643 266.65,199.19C292.197,168.717 318.11,138.003 344.39,107.05C344.452,106.974 344.485,106.878 344.485,106.78C344.485,106.546 344.294,106.353 344.06,106.35L314.75,106.35C314.168,106.349 313.633,106.674 313.37,107.19L265.49,199.78C265.476,199.805 265.469,199.833 265.469,199.861C265.469,199.954 265.546,200.031 265.639,200.031C265.66,200.031 265.681,200.027 265.7,200.02" style="fill:none;fill-rule:nonzero;stroke:rgb(37,38,34);stroke-width:2px;"/>
            <path d="M295.42,130.51C295.324,130.529 295.239,130.579 295.18,130.65L256.51,174.14C255.879,174.855 255.53,175.773 255.53,176.72L255.53,207.26C255.534,207.438 255.682,207.583 255.86,207.583C255.981,207.583 256.092,207.516 256.15,207.41C277.63,165.903 290.84,140.52 295.78,131.26C296.107,130.633 295.987,130.383 295.42,130.51" style="fill:none;fill-rule:nonzero;stroke:rgb(37,38,34);stroke-width:2px;"/>
            <path d="M211.3,131.18C210.74,131.06 210.623,131.307 210.95,131.92C215.83,141.073 228.883,166.153 250.11,207.16C250.162,207.273 250.276,207.346 250.4,207.346C250.576,207.346 250.72,207.201 250.72,207.026L250.72,176.84C250.72,175.904 250.375,174.996 249.75,174.29L211.54,131.32C211.482,131.249 211.397,131.199 211.3,131.18" style="fill:none;fill-rule:nonzero;stroke:rgb(37,38,34);stroke-width:2px;"/>
            <path d="M228.65,91.9C228.657,100.367 228.647,104.817 228.62,105.25C228.619,105.259 228.619,105.268 228.619,105.277C228.619,105.502 228.804,105.687 229.029,105.687C229.096,105.687 229.161,105.671 229.22,105.64L246.53,96.72C246.808,96.58 247.145,96.642 247.35,96.87C248.61,98.277 250.247,98.817 252.26,98.49C252.533,98.443 252.81,98.42 253.09,98.42C253.37,98.42 253.647,98.443 253.92,98.49C255.933,98.817 257.57,98.273 258.83,96.86C259.035,96.632 259.372,96.57 259.65,96.71L276.97,105.62C277.029,105.651 277.094,105.667 277.161,105.667C277.386,105.667 277.571,105.482 277.571,105.257C277.571,105.248 277.571,105.239 277.57,105.23C277.543,104.797 277.527,100.343 277.52,91.87C277.52,83.403 277.533,78.953 277.56,78.52C277.561,78.511 277.561,78.502 277.561,78.493C277.561,78.268 277.376,78.083 277.151,78.083C277.084,78.083 277.019,78.099 276.96,78.13L259.65,87.05C259.372,87.19 259.035,87.128 258.83,86.9C257.57,85.493 255.933,84.953 253.92,85.28C253.647,85.327 253.367,85.35 253.08,85.35C252.8,85.35 252.523,85.327 252.25,85.28C250.237,84.953 248.6,85.493 247.34,86.9C247.139,87.127 246.807,87.193 246.53,87.06L229.21,78.15C229.151,78.119 229.086,78.103 229.019,78.103C228.794,78.103 228.609,78.288 228.609,78.513C228.609,78.522 228.609,78.531 228.61,78.54C228.637,78.973 228.65,83.427 228.65,91.9" style="fill:none;fill-rule:nonzero;stroke:rgb(37,38,34);stroke-width:2px;"/>
        </g>
        <g transform="matrix(1,0,0,1,0.5,0.5)">
            <path d="M253.14,55.18C268.54,55.173 288.243,55.173 312.25,55.18C313.55,55.18 314.54,55.283 315.22,55.49C315.68,55.626 316.081,55.911 316.36,56.3C317.173,57.433 328.75,72.313 351.09,100.94C352.657,102.947 352.683,104.85 351.17,106.65C317.59,146.59 285.697,184.287 255.49,219.74C254.857,220.48 254.077,220.85 253.15,220.85C252.223,220.85 251.443,220.48 250.81,219.74C220.597,184.293 188.697,146.6 155.11,106.66C153.597,104.867 153.623,102.963 155.19,100.95C177.53,72.323 189.107,57.443 189.92,56.31C190.199,55.921 190.6,55.636 191.06,55.5C191.74,55.293 192.73,55.19 194.03,55.19C218.03,55.183 237.733,55.18 253.14,55.18ZM208.45,76.09C208.516,76.181 208.621,76.235 208.734,76.235C208.842,76.235 208.944,76.185 209.01,76.1L221.3,60.42C221.35,60.358 221.378,60.28 221.378,60.2C221.378,60.008 221.22,59.85 221.028,59.85L197.577,59.85C197.385,59.85 197.227,60.008 197.227,60.2C197.227,60.271 197.249,60.341 197.29,60.4L208.45,76.09ZM297.26,75.71C297.374,75.855 297.548,75.94 297.733,75.94C297.926,75.94 298.107,75.847 298.22,75.69L308.76,60.81C308.833,60.708 308.873,60.586 308.873,60.46C308.873,60.131 308.602,59.86 308.273,59.86L285.98,59.86C285.652,59.861 285.382,60.132 285.382,60.46C285.382,60.594 285.427,60.724 285.51,60.83L297.26,75.71ZM272.88,60.51C272.948,60.453 272.987,60.369 272.987,60.28C272.987,60.115 272.852,59.98 272.687,59.98L233.733,59.98C233.568,59.98 233.433,60.115 233.433,60.28C233.433,60.369 233.472,60.453 233.54,60.51L253.01,77.6C253.123,77.701 253.297,77.701 253.41,77.6L272.88,60.51ZM253.06,168.91C253.34,168.91 253.657,168.527 254.01,167.76C273.223,126.773 286.81,97.923 294.77,81.21C294.868,81.016 294.845,80.781 294.71,80.61L279.87,61.82C279.863,61.811 279.856,61.802 279.849,61.794C279.579,61.476 279.092,61.439 278.77,61.712C278.763,61.718 278.757,61.724 278.75,61.73C270.963,68.763 262.977,75.617 254.79,82.29C254.377,82.63 253.83,82.8 253.15,82.8C252.47,82.8 251.923,82.63 251.51,82.29C243.337,75.597 235.363,68.727 227.59,61.68C227.584,61.675 227.578,61.669 227.572,61.664C227.251,61.39 226.764,61.425 226.493,61.742C226.485,61.751 226.477,61.76 226.47,61.77L211.59,80.53C211.455,80.701 211.432,80.936 211.53,81.13C219.457,97.857 232.987,126.733 252.12,167.76C252.473,168.527 252.787,168.91 253.06,168.91ZM164.56,96.91C164.507,96.973 164.479,97.052 164.479,97.134C164.479,97.326 164.637,97.484 164.829,97.484C164.881,97.484 164.933,97.473 164.98,97.45L204.5,79.67C204.624,79.613 204.704,79.488 204.704,79.352C204.704,79.28 204.682,79.209 204.64,79.15L192.45,62.03C192.384,61.939 192.279,61.885 192.166,61.885C192.058,61.885 191.956,61.935 191.89,62.02L164.56,96.91ZM341.41,97.43C341.456,97.45 341.505,97.461 341.556,97.461C341.753,97.461 341.916,97.298 341.916,97.101C341.916,97.021 341.889,96.943 341.84,96.88L314.42,62.15C314.352,62.061 314.246,62.008 314.134,62.008C314.017,62.008 313.907,62.065 313.84,62.16L301.8,79.16C301.756,79.221 301.733,79.294 301.733,79.37C301.733,79.513 301.818,79.643 301.95,79.7L341.41,97.43ZM192.86,101.59C192.967,101.588 193.065,101.531 193.12,101.44L202.31,86.58C202.342,86.53 202.36,86.471 202.36,86.412C202.36,86.241 202.22,86.102 202.05,86.102C202.005,86.102 201.961,86.111 201.92,86.13L168.85,101C168.742,101.051 168.673,101.161 168.673,101.28C168.673,101.449 168.811,101.588 168.98,101.59L192.86,101.59ZM312.96,101.38C313.016,101.477 313.118,101.537 313.23,101.54L337.26,101.54C337.434,101.537 337.575,101.394 337.575,101.22C337.575,101.096 337.503,100.982 337.39,100.93L304.95,86.35C304.909,86.331 304.864,86.322 304.818,86.322C304.642,86.322 304.498,86.466 304.498,86.642C304.498,86.697 304.512,86.752 304.54,86.8L312.96,101.38ZM240.3,199.72C240.319,199.727 240.34,199.731 240.361,199.731C240.454,199.731 240.531,199.654 240.531,199.561C240.531,199.533 240.524,199.505 240.51,199.48L192.89,107.31C192.628,106.798 192.099,106.473 191.52,106.47L162.35,106.46C162.3,106.46 162.25,106.469 162.203,106.486C161.981,106.567 161.863,106.811 161.941,107.028C161.959,107.076 161.986,107.121 162.02,107.16C188.16,137.973 213.937,168.55 239.35,198.89C239.737,199.343 240.053,199.62 240.3,199.72ZM212.68,106.88C212.722,106.826 212.745,106.759 212.745,106.69C212.745,106.52 212.605,106.38 212.435,106.38L198.407,106.38C198.237,106.38 198.097,106.52 198.097,106.69C198.097,106.739 198.108,106.787 198.13,106.83L203.7,117.64C203.753,117.743 203.86,117.809 203.976,117.809C204.071,117.809 204.161,117.765 204.22,117.69L212.68,106.88ZM307.88,106.39L293.792,106.39C293.628,106.39 293.492,106.525 293.492,106.69C293.492,106.759 293.516,106.826 293.56,106.88L302.07,117.65C302.127,117.723 302.214,117.766 302.307,117.766C302.416,117.766 302.517,117.706 302.57,117.61L308.14,106.83C308.163,106.787 308.175,106.739 308.175,106.69C308.175,106.527 308.043,106.393 307.88,106.39ZM265.7,200.02C265.947,199.92 266.263,199.643 266.65,199.19C292.197,168.717 318.11,138.003 344.39,107.05C344.452,106.974 344.485,106.878 344.485,106.78C344.485,106.546 344.294,106.353 344.06,106.35L314.75,106.35C314.168,106.349 313.633,106.674 313.37,107.19L265.49,199.78C265.476,199.805 265.469,199.833 265.469,199.861C265.469,199.954 265.546,200.031 265.639,200.031C265.66,200.031 265.681,200.027 265.7,200.02ZM295.42,130.51C295.324,130.529 295.239,130.579 295.18,130.65L256.51,174.14C255.879,174.855 255.53,175.773 255.53,176.72L255.53,207.26C255.534,207.438 255.682,207.583 255.86,207.583C255.981,207.583 256.092,207.516 256.15,207.41C277.63,165.903 290.84,140.52 295.78,131.26C296.107,130.633 295.987,130.383 295.42,130.51ZM211.3,131.18C210.74,131.06 210.623,131.307 210.95,131.92C215.83,141.073 228.883,166.153 250.11,207.16C250.162,207.273 250.276,207.346 250.4,207.346C250.576,207.346 250.72,207.201 250.72,207.026L250.72,176.84C250.72,175.904 250.375,174.996 249.75,174.29L211.54,131.32C211.482,131.249 211.397,131.199 211.3,131.18Z" style="fill:rgb(37,38,34);fill-rule:nonzero;"/>
        </g>
        <g transform="matrix(1,0,0,1,0.5,0.5)">
            <path d="M253.08,85.35C253.367,85.35 253.647,85.327 253.92,85.28C255.933,84.953 257.57,85.493 258.83,86.9C259.035,87.128 259.372,87.19 259.65,87.05L276.96,78.13C277.019,78.099 277.084,78.083 277.151,78.083C277.376,78.083 277.561,78.268 277.561,78.493C277.561,78.502 277.561,78.511 277.56,78.52C277.533,78.953 277.52,83.403 277.52,91.87C277.527,100.343 277.543,104.797 277.57,105.23C277.571,105.239 277.571,105.248 277.571,105.257C277.571,105.482 277.386,105.667 277.161,105.667C277.094,105.667 277.029,105.651 276.97,105.62L259.65,96.71C259.372,96.57 259.035,96.632 258.83,96.86C257.57,98.273 255.933,98.817 253.92,98.49C253.647,98.443 253.37,98.42 253.09,98.42C252.81,98.42 252.533,98.443 252.26,98.49C250.247,98.817 248.61,98.277 247.35,96.87C247.145,96.642 246.808,96.58 246.53,96.72L229.22,105.64C229.161,105.671 229.096,105.687 229.029,105.687C228.804,105.687 228.619,105.502 228.619,105.277C228.619,105.268 228.619,105.259 228.62,105.25C228.647,104.817 228.657,100.367 228.65,91.9C228.65,83.427 228.637,78.973 228.61,78.54C228.609,78.531 228.609,78.522 228.609,78.513C228.609,78.288 228.794,78.103 229.019,78.103C229.086,78.103 229.151,78.119 229.21,78.15L246.53,87.06C246.807,87.193 247.139,87.127 247.34,86.9C248.6,85.493 250.237,84.953 252.25,85.28C252.523,85.327 252.8,85.35 253.08,85.35Z" style="fill:rgb(37,38,34);fill-rule:nonzero;"/>
        </g>
    </g>
</svg>
